<?xml version="1.0" encoding="UTF-8" standalone="no"?>
<!-- Created with Inkscape (http://www.inkscape.org/) -->

<svg
   width="210mm"
   height="297mm"
   viewBox="0 0 210 297"
   version="1.1"
   id="svg5"
   inkscape:version="1.2.1 (9c6d41e410, 2022-07-14)"
   sodipodi:docname="one_numero.svg"
   xmlns:inkscape="http://www.inkscape.org/namespaces/inkscape"
   xmlns:sodipodi="http://sodipodi.sourceforge.net/DTD/sodipodi-0.dtd"
   xmlns="http://www.w3.org/2000/svg"
   xmlns:svg="http://www.w3.org/2000/svg">
  <sodipodi:namedview
     id="namedview7"
     pagecolor="#ffffff"
     bordercolor="#000000"
     borderopacity="0.25"
     inkscape:showpageshadow="2"
     inkscape:pageopacity="0.0"
     inkscape:pagecheckerboard="0"
     inkscape:deskcolor="#d1d1d1"
     inkscape:document-units="mm"
     showgrid="false"
     inkscape:zoom="0.50333193"
     inkscape:cx="-159.93422"
     inkscape:cy="409.27266"
     inkscape:window-width="1366"
     inkscape:window-height="745"
     inkscape:window-x="-8"
     inkscape:window-y="-8"
     inkscape:window-maximized="1"
     inkscape:current-layer="layer1" />
  <defs
     id="defs2" />
  <g
     inkscape:label="Слой 1"
     inkscape:groupmode="layer"
     id="layer1">
    <path
       style="fill:#ff6600;fill-opacity:0.933333;stroke-width:0.264583"
       d="M 31.539823,107.2354 C 53.092034,72.541592 46.784069,66.75929 97.773449,84.106193 148.76283,101.4531 160.85309,105.65841 165.05841,103.03009 c 4.2053,-2.62832 14.19291,8.41062 10.51327,8.41062 -3.67965,0 -34.16814,-7.88496 -47.30974,-0.52567 -13.14159,7.35929 -16.82123,12.09027 -34.168136,5.25664 C 76.746901,109.33805 59.4,110.38938 48.886726,113.0177 38.373452,115.64602 31.539823,107.2354 31.539823,107.2354 Z"
       id="path113" />
    <path
       style="fill:#000000;fill-opacity:0.933333;stroke-width:0.264583"
       id="path327"
       sodipodi:type="arc"
       sodipodi:cx="119.32566"
       sodipodi:cy="43.367256"
       sodipodi:rx="8.9362831"
       sodipodi:ry="9.1991158"
       sodipodi:start="1.4129824"
       sodipodi:end="1.4108001"
       sodipodi:arc-type="slice"
       d="m 120.73008,52.452056 a 8.9362831,9.1991158 0 0 1 -10.22889,-7.634114 8.9362831,9.1991158 0 0 1 7.41042,-10.533903 8.9362831,9.1991158 0 0 1 10.23697,7.62262 8.9362831,9.1991158 0 0 1 -7.39924,10.542221 l -1.42368,-9.081624 z" />
    <path
       style="fill:#000000;fill-opacity:0.933333;stroke-width:0.264583"
       id="path329"
       sodipodi:type="arc"
       sodipodi:cx="122.74248"
       sodipodi:cy="26.808849"
       sodipodi:rx="7.0964599"
       sodipodi:ry="6.3079643"
       sodipodi:start="1.4129824"
       sodipodi:end="1.4108001"
       sodipodi:arc-type="slice"
       d="m 123.85775,33.038426 a 7.0964599,6.3079643 0 0 1 -8.12294,-5.23482 7.0964599,6.3079643 0 0 1 5.88474,-7.223248 7.0964599,6.3079643 0 0 1 8.12937,5.226939 7.0964599,6.3079643 0 0 1 -5.87587,7.228951 l -1.13057,-6.227399 z" />
    <path
       style="fill:#000000;fill-opacity:0.933333;stroke-width:0.264583"
       d="m 116.34222,26.762427 -4.83211,13.381214 17.09822,4.460404 0.3717,-15.239717 z"
       id="path385" />
    <path
       style="fill:#000000;fill-opacity:0.933333;stroke-width:0.264583"
       d="m 141.98954,5.5755055 c -0.3717,1.4868017 -18.58501,86.2344865 -18.58501,86.2344865 l 7.8057,0.7434 z"
       id="path387" />
    <path
       style="fill:#000000;fill-opacity:0.933333;stroke-width:0.264583"
       d="m 147.19335,20.07182 9.66421,79.91558 4.4604,-0.3717 z"
       id="path389" />
    <path
       style="fill:#000000;fill-opacity:0.933333;stroke-width:0.264583"
       d="m 127.86493,33.824735 c 7.06231,2.230202 45.34744,10.03591 45.34744,10.03591 l -2.2302,10.77931 -43.86064,-12.266112 z"
       id="path391" />
    <rect
       style="fill:#000000;fill-opacity:0.933333;stroke-width:0.264583"
       id="rect445"
       width="2.6019025"
       height="34.568134"
       x="162.43306"
       y="52.781452" />
    <rect
       style="fill:#800000;fill-opacity:0.933333;stroke-width:0.264583"
       id="rect447"
       width="11.151011"
       height="14.496315"
       x="157.97266"
       y="88.464691" />
    <path
       style="fill:#552200;fill-opacity:0.933333;stroke-width:0.264583"
       d="M 57.985257,57.985257 53.524853,89.95149 h 16.354816 z"
       id="path609" />
    <path
       style="fill:#008000;fill-opacity:0.933333;stroke-width:0.264583"
       d="M 63.932463,57.241857 C 68.021167,49.064449 76.198576,39.771941 80.658982,50.551251 85.119386,61.330561 87.349588,76.570278 75.455176,68.39287 63.560763,60.215462 61.330561,56.126758 61.330561,56.126758 Z"
       id="path773" />
    <path
       style="fill:#008000;fill-opacity:0.933333;stroke-width:0.264583"
       d="m 59.843759,56.498458 c 4.832107,13.752914 13.752915,12.266112 3.345305,15.983116 -10.407611,3.717002 -18.956719,4.460404 -14.124615,-1.858502 4.832104,-6.318906 10.77931,-14.124614 10.77931,-14.124614 z"
       id="path829" />
    <path
       style="fill:#008000;fill-opacity:0.933333;stroke-width:0.264583"
       d="M 58.35696,50.551251 C 35.683237,44.975745 22.302023,34.939835 35.683237,47.205947 c 13.381212,12.266112 20.815221,14.496314 20.071818,12.266112 -0.7434,-2.230202 2.601905,-8.920808 2.601905,-8.920808 z"
       id="path831" />
    <rect
       style="fill:#333333;fill-opacity:0.933333;stroke-width:0.264583"
       id="rect885"
       width="22.673723"
       height="21.186922"
       x="40.515339"
       y="151.65376" />
    <path
       style="fill:#333333;fill-opacity:0.933333;stroke-width:0.264583"
       d="m 67.649468,142.73294 -5.203804,11.52272 -1.486802,17.84161 c 0,0 14.868014,1.8585 14.868014,-0.7434 0,-2.6019 -8.177408,-28.62093 -8.177408,-28.62093 z"
       id="path993" />
    <path
       style="fill:#333333;fill-opacity:0.933333;stroke-width:0.264583"
       id="path1047"
       sodipodi:type="arc"
       sodipodi:cx="56.870155"
       sodipodi:cy="204.99275"
       sodipodi:rx="10.035911"
       sodipodi:ry="8.7349586"
       sodipodi:start="1.4129824"
       sodipodi:end="1.4108001"
       sodipodi:arc-type="slice"
       d="m 58.447396,213.61916 a 10.035911,8.7349586 0 0 1 -11.487575,-7.24892 10.035911,8.7349586 0 0 1 8.32228,-10.0024 10.035911,8.7349586 0 0 1 11.496656,7.23801 10.035911,8.7349586 0 0 1 -8.309736,10.0103 l -1.598866,-8.6234 z" />
    <rect
       style="fill:#333333;fill-opacity:0.933333;stroke-width:0.258892"
       id="rect1049"
       width="54.268253"
       height="16.726517"
       x="1.8585019"
       y="197.37289" />
    <path
       style="fill:#333333;fill-opacity:0.933333;stroke-width:0.264583"
       d="m 4.0887041,142.73294 c 0,0.7434 0,1.48681 0,2.23021"
       id="path1114" />
    <path
       style="fill:#aa0000;fill-opacity:0.933333;stroke-width:0.264583"
       d="m 2.9736031,140.13104 c 1.4868014,0.3717 20.4435209,0.7434 20.4435209,0.7434 l 6.690607,42.00214 H 2.2302023 Z"
       id="path1118" />
    <path
       style="fill:#008080;fill-opacity:0.933333;stroke-width:0.264583"
       d="m 6.3189064,147.56505 v 15.23971 l 12.6378126,-0.3717 v -13.75291 z"
       id="path1174" />
    <path
       style="fill:#008080;fill-opacity:0.933333;stroke-width:0.264583"
       d="m 189.93889,110.39501 c 0,0 -6.69061,6.31891 -34.93983,-0.7434 -28.24923,-7.06231 -12.63782,1.1151 -31.59453,-0.3717 -18.95673,-1.4868 -15.98312,5.5755 -27.877534,1.4868 -11.894412,-4.0887 -20.44352,0.7434 -41.630443,1.4868 -21.18692,0.74341 -14.124612,1.1151 -26.762427,-2.6019 -12.637811,-3.717 -13.381212,-1.4868 -19.3284182,8.92081 l 6.3189062,10.03591 43.488945,-0.3717 c 0,0 31.222832,-3.3453 39.77194,-0.3717 8.549111,2.9736 41.258741,13.00951 42.745541,12.63781 1.4868,-0.3717 10.03591,-10.40761 14.86802,-11.15101 4.8321,-0.7434 20.81522,-5.5755 22.30202,-7.06231 1.4868,-1.4868 12.63781,-11.89441 12.63781,-11.89441 z"
       id="path1230" />
    <rect
       style="fill:#00ffff;fill-opacity:0.933333;stroke-width:0.264583"
       id="rect1331"
       width="38.285137"
       height="44.975746"
       x="112.62521"
       y="185.47849" />
    <path
       style="fill:#00ffff;fill-opacity:0.933333;stroke-width:0.264583"
       id="path1437"
       sodipodi:type="arc"
       sodipodi:cx="154.25566"
       sodipodi:cy="205.73616"
       sodipodi:rx="8.5491085"
       sodipodi:ry="14.682164"
       sodipodi:start="1.4129824"
       sodipodi:end="1.4108001"
       sodipodi:arc-type="slice"
       d="m 155.59924,220.23587 a 8.5491085,14.682164 0 0 1 -9.78572,-12.18436 8.5491085,14.682164 0 0 1 7.08935,-16.81254 8.5491085,14.682164 0 0 1 9.79345,12.16602 8.5491085,14.682164 0 0 1 -7.07866,16.82581 l -1.362,-14.49464 z" />
    <path
       style="fill:#f2f2f2;fill-opacity:0.933333;stroke-width:0.264583"
       id="path1493"
       sodipodi:type="arc"
       sodipodi:cx="154.8132"
       sodipodi:cy="207.96635"
       sodipodi:rx="4.2745543"
       sodipodi:ry="8.3632584"
       sodipodi:start="1.4129824"
       sodipodi:end="1.4108001"
       sodipodi:arc-type="slice"
       d="m 155.48499,216.22568 a 4.2745543,8.3632584 0 0 1 -4.89286,-6.94045 4.2745543,8.3632584 0 0 1 3.54468,-9.57677 4.2745543,8.3632584 0 0 1 4.89672,6.93001 4.2745543,8.3632584 0 0 1 -3.53933,9.58433 l -0.681,-8.25645 z" />
    <rect
       style="fill:#000080;fill-opacity:0.933333;stroke-width:0.264583"
       id="rect1599"
       width="39.771942"
       height="11.522712"
       x="112.25352"
       y="231.19763" />
    <path
       style="fill:#ff2a2a;fill-opacity:0.933333;stroke-width:0.264583"
       d="m 3.9424779,283.85841 c 3.416814,-2.62832 34.9566371,-27.33452 34.9566371,-27.33452 l -1.57699,-33.11681 -31.2769923,17.3469 z"
       id="path1707" />
    <path
       style="fill:#ff2a2a;fill-opacity:0.933333;stroke-width:0.264583"
       d="m 40.738938,256.78672 37.322124,1.83983 2.365486,-34.16814 -40.738937,1.57699 z"
       id="path1763" />
    <path
       style="fill:#803300;fill-opacity:0.933333;stroke-width:0.264583"
       d="m 9.199115,284.90973 c 1.314159,-1.83983 31.276991,-25.49469 31.276991,-25.49469 l 36.533627,1.57699 -21.289381,26.54602 z"
       id="path1765" />
    <path
       style="fill:#000000;fill-opacity:0.933333;stroke-width:0.264583"
       d="m 18.661062,254.1584 0.262832,8.93629 2.89115,-1.57699 -0.525664,-7.88496 z"
       id="path1767" />
    <rect
       style="fill:#000000;fill-opacity:0.933333;stroke-width:0.264583"
       id="rect1769"
       width="13.141593"
       height="6.0451326"
       x="85.683182"
       y="267.03717" />
    <rect
       style="fill:#d40000;fill-opacity:0.933333;stroke-width:0.264583"
       id="rect1771"
       width="11.564602"
       height="4.9938054"
       x="80.163719"
       y="272.55664" />
    <rect
       style="fill:#d40000;fill-opacity:0.933333;stroke-width:0.264583"
       id="rect1825"
       width="14.981416"
       height="4.4681416"
       x="84.369026"
       y="262.30618" />
    <rect
       style="fill:#d40000;fill-opacity:0.933333;stroke-width:0.264583"
       id="rect1827"
       width="6.0451326"
       height="6.8336282"
       x="93.830971"
       y="270.97964" />
    <rect
       style="fill:#d40000;fill-opacity:0.933333;stroke-width:0.264583"
       id="rect1829"
       width="3.4168141"
       height="8.9362831"
       x="71.490265"
       y="284.38406" />
    <path
       style="fill:#782121;fill-opacity:0.933333;stroke-width:0.264583"
       d="m 123.7938,274.13362 24.96903,1.05133 1.83982,9.19911 24.44337,0.52567 1.83982,8.41063 16.55841,-1.05135 1.05132,4.46815 -69.12478,-1.83983 z"
       id="path1885" />
    <path
       style="fill:#916f6f;fill-opacity:0.933333;stroke-width:0.264583"
       d="m 124.84513,255.47256 c 3.94248,0.7885 75.16991,23.9177 75.16991,23.9177 0,0 -2.10265,3.41683 -3.15398,3.41683 -1.05133,0 -73.33009,-24.18054 -73.33009,-24.18054 z"
       id="path1941" />
    <path
       style="fill:#916f6f;fill-opacity:0.933333;stroke-width:0.264583"
       d="m 138.77522,263.35752 v 10.7761 l -6.04513,-0.78848 -0.7885,-10.25045 z"
       id="path1997" />
    <path
       style="fill:#916f6f;fill-opacity:0.933333;stroke-width:0.264583"
       d="m 167.94956,272.29379 -0.26284,12.61594 c 0,0 -6.30796,-0.26283 -6.30796,-1.31416 0,-1.05132 0.26283,-13.66726 0.26283,-13.66726 z"
       id="path1999" />
    <path
       style="fill:#916f6f;fill-opacity:0.933333;stroke-width:0.264583"
       d="m 189.50177,281.75574 -0.7885,9.98762 h -6.04513 l 0.26283,-10.51327 z"
       id="path2001" />
    <text
       xml:space="preserve"
       style="font-size:9.87777px;text-align:center;text-anchor:middle;fill:#916f6f;fill-opacity:0.933333;stroke-width:0.264583"
       x="132.32533"
       y="198.48799"
       id="text2100"><tspan
         sodipodi:role="line"
         id="tspan2098"
         style="stroke-width:0.264583"
         x="132.32533"
         y="198.48799">Imarbek</tspan></text>
    <path
       style="fill:#800000;fill-opacity:0.933333;stroke-width:0.264583"
       d="m 115.22712,200.90405 c 0,-0.7434 25.27562,-13.00951 25.27562,-13.00951 0,0 3.53115,1.4868 -0.18585,2.04435 -3.717,0.55755 -25.08977,10.96516 -25.08977,10.96516 z"
       id="path2152" />
    <path
       style="fill:#800000;fill-opacity:0.933333;stroke-width:0.264583"
       d="m 123.96207,187.52284 18.58502,10.59346 -2.9736,2.6019 z"
       id="path2154" />
    <text
       xml:space="preserve"
       style="font-size:9.87777px;text-align:center;text-anchor:middle;fill:#800000;fill-opacity:0.933333;stroke-width:0.264583"
       x="132.51118"
       y="213.17017"
       id="text2210"><tspan
         sodipodi:role="line"
         id="tspan2208"
         style="stroke-width:0.264583"
         x="132.51118"
         y="213.17017">Imanbek</tspan></text>
    <text
       xml:space="preserve"
       style="font-size:9.87777px;text-align:center;text-anchor:middle;fill:#800000;fill-opacity:0.933333;stroke-width:0.264583"
       x="167.16106"
       y="233.39468"
       id="text2264"><tspan
         sodipodi:role="line"
         id="tspan2262"
         style="stroke-width:0.264583"
         x="167.16106"
         y="233.39468">Kosty</tspan></text>
    <text
       xml:space="preserve"
       style="font-size:9.87777px;text-align:center;text-anchor:middle;fill:#800000;fill-opacity:0.933333;stroke-width:0.264583"
       x="169.26372"
       y="247.32477"
       id="text2268"><tspan
         sodipodi:role="line"
         id="tspan2266"
         style="stroke-width:0.264583"
         x="169.26372"
         y="247.32477">Ruslan</tspan></text>
    <rect
       style="fill:#483737;fill-opacity:0.933333;stroke-width:0.264583"
       id="rect2270"
       width="3.1539822"
       height="17.346903"
       x="112.2292"
       y="71.227432" />
    <rect
       style="fill:#483737;fill-opacity:0.933333;stroke-width:0.264583"
       id="rect2324"
       width="2.8911505"
       height="24.180531"
       x="173.73186"
       y="77.272568" />
    <rect
       style="fill:#808000;fill-opacity:0.933333;stroke-width:0.264583"
       id="rect2326"
       width="42.745541"
       height="19.328419"
       x="161.31796"
       y="162.06136" />
    <path
       style="fill:#ffff00;fill-opacity:0.933333;stroke-width:0.264583"
       d="m 176.55768,163.17646 c -11.52271,-7.8057 -10.40761,-13.75291 -5.94721,-13.75291 4.46041,0 10.40761,-9.29251 10.40761,-0.3717 0,8.92081 -4.4604,14.12461 -4.4604,14.12461 z"
       id="path2434" />
    <path
       style="fill:#ffff00;fill-opacity:0.933333;stroke-width:0.264583"
       d="m 183.24828,159.45946 c 3.34531,-8.92081 10.40761,-19.32842 12.26612,-14.12461 1.8585,5.2038 6.6906,13.00951 1.4868,13.75291 -5.20381,0.7434 -13.75292,2.9736 -13.75292,2.9736 z"
       id="path2436" />
    <path
       style="fill:#ffff00;fill-opacity:0.933333;stroke-width:0.264583"
       d="m 179.53128,163.17646 c -3.3453,-6.3189 -6.69061,-5.9472 -0.3717,-8.9208 6.31891,-2.97361 9.66421,-0.3717 9.29251,1.8585 -0.3717,2.2302 -8.92081,7.0623 -8.92081,7.0623 z"
       id="path2438" />
    <text
       xml:space="preserve"
       style="font-size:9.87777px;text-align:center;text-anchor:middle;fill:#ffff00;fill-opacity:0.933333;stroke-width:0.264583"
       x="186.22188"
       y="194.39929"
       id="text2544"><tspan
         sodipodi:role="line"
         id="tspan2542"
         style="stroke-width:0.264583"
         x="186.22188"
         y="194.39929">!</tspan></text>
    <text
       xml:space="preserve"
       style="font-size:9.87777px;text-align:center;text-anchor:middle;fill:#000000;fill-opacity:0.933333;stroke-width:0.264583"
       x="51.294651"
       y="182.50488"
       id="text2609"><tspan
         sodipodi:role="line"
         id="tspan2607"
         style="stroke-width:0.264583;fill:#000000"
         x="51.294651"
         y="182.50488">One boddyy</tspan></text>
  </g>
</svg>
