<?xml version="1.0" encoding="UTF-8" standalone="no"?>
<!-- Created with Inkscape (http://www.inkscape.org/) -->

<svg
   width="210mm"
   height="297mm"
   viewBox="0 0 210 297"
   version="1.1"
   id="svg5"
   inkscape:version="1.2.1 (9c6d41e410, 2022-07-14)"
   sodipodi:docname="project.svg"
   xmlns:inkscape="http://www.inkscape.org/namespaces/inkscape"
   xmlns:sodipodi="http://sodipodi.sourceforge.net/DTD/sodipodi-0.dtd"
   xmlns="http://www.w3.org/2000/svg"
   xmlns:svg="http://www.w3.org/2000/svg">
  <sodipodi:namedview
     id="namedview7"
     pagecolor="#ffffff"
     bordercolor="#000000"
     borderopacity="0.25"
     inkscape:showpageshadow="2"
     inkscape:pageopacity="0.0"
     inkscape:pagecheckerboard="0"
     inkscape:deskcolor="#d1d1d1"
     inkscape:document-units="mm"
     showgrid="false"
     inkscape:zoom="0.50333193"
     inkscape:cx="398.34548"
     inkscape:cy="880.1349"
     inkscape:window-width="1366"
     inkscape:window-height="745"
     inkscape:window-x="-8"
     inkscape:window-y="-8"
     inkscape:window-maximized="1"
     inkscape:current-layer="layer1" />
  <defs
     id="defs2" />
  <g
     inkscape:label="Слой 1"
     inkscape:groupmode="layer"
     id="layer1">
    <path
       style="fill:#ff7f2a;fill-opacity:0.933333;stroke-width:0.264583"
       d="m 45.207078,178.72566 c 28.385841,-26.80885 29.437168,-32.06549 66.233632,-22.07787 36.79646,9.98761 50.46371,20.50088 52.56637,26.80885 2.10265,6.30796 -9.46195,24.18053 -21.55221,14.19292 -12.09027,-9.98762 -38.37346,-13.1416 -43.104428,-5.78231 -4.730974,7.3593 -24.180532,8.41062 -27.860177,5.25664 -3.679645,-3.15398 -26.283187,-18.39823 -26.283187,-18.39823 z"
       id="path113" />
    <path
       style="fill:#008080;fill-opacity:0.933333;stroke-width:0.264583"
       d="m 27.334514,189.23894 c 5.256636,-8.93629 4.205309,-21.02655 14.192919,-13.66726 9.987611,7.35929 4.205309,15.24425 32.065486,16.82124 27.860181,1.57699 29.962831,-2.10266 41.001771,-2.10266 11.03894,0 28.38584,7.3593 41.52743,1.05133 13.14159,-6.30796 8.41062,-19.44956 14.71858,-3.67965 6.30797,15.76992 15.76992,31.53983 -15.76991,34.16814 -31.53982,2.62833 -54.66902,11.03894 -71.49026,2.10266 -16.82124,-8.93628 -40.476106,-7.88495 -49.938053,-12.61593 -9.461946,-4.73097 -6.307963,-22.07787 -6.307963,-22.07787 z"
       id="path223" />
    <path
       style="fill:#552200;fill-opacity:0.933333;stroke-width:0.264583"
       d="m 110.91504,168.21239 8.93629,-47.8354 7.88495,49.93805 z"
       id="path279" />
    <path
       style="fill:#008000;fill-opacity:0.933333;stroke-width:0.264583"
       d="m 121.42832,117.74867 c 4.73097,-11.5646 22.07787,-14.19292 26.80885,-7.88495 4.73097,6.30796 17.87256,14.19292 4.73097,14.71858 -13.14159,0.52566 -13.14159,4.20531 -19.44956,0 -6.30796,-4.20531 -12.09026,-6.83363 -12.09026,-6.83363 z"
       id="path335" />
    <path
       style="fill:#008000;fill-opacity:0.933333;stroke-width:0.264583"
       d="M 120.90265,111.44071 C 114.06903,99.350442 104.60708,84.631857 95.670795,98.824776 c -8.936284,14.192924 -1.051327,20.500884 3.153981,20.500884 4.205314,0 22.077874,-7.88495 22.077874,-7.88495 z"
       id="path391" />
    <path
       style="fill:#008000;fill-opacity:0.933333;stroke-width:0.264583"
       d="m 116.17168,120.37699 c -14.19292,9.98761 -19.975222,10.51327 -10.51327,17.3469 9.46194,6.83363 21.02654,12.61593 22.07787,6.30797 1.05133,-6.30797 -11.5646,-23.65487 -11.5646,-23.65487 z"
       id="path393" />
    <rect
       style="fill:#000080;fill-opacity:0.933333;stroke-width:0.264583"
       id="rect447"
       width="55.194687"
       height="35.219471"
       x="127.73628"
       y="17.346903" />
    <text
       xml:space="preserve"
       style="font-size:9.87777px;text-align:center;text-anchor:middle;fill:#ff0000;fill-opacity:0.933333;stroke-width:0.264583"
       x="117.74867"
       y="27.860178"
       id="text555"><tspan
         sodipodi:role="line"
         id="tspan553"
         style="stroke-width:0.264583;fill:#ff0000"
         x="117.74867"
         y="27.860178">MARK BORISLOV</tspan></text>
    <path
       style="fill:#2b1100;fill-opacity:0.933333;stroke-width:0.264583"
       d="M 18.39823,27.860178 12.090265,115.12035 43.104424,111.96637 29.962832,22.077876 Z"
       id="path767" />
    <path
       style="fill:#c87137;fill-opacity:0.933333;stroke-width:0.264583"
       d="m 33.642477,56.246016 c 2.102654,0 37.322124,-1.051327 37.322124,-1.051327 l -2.102654,8.936283 -35.21947,0.525664 z"
       id="path823" />
    <path
       style="fill:#c87137;fill-opacity:0.933333;stroke-width:0.264583"
       d="M 65.182299,36.270795 V 56.77168 l 7.884957,-1.051328 -2.628318,-21.026548 z"
       id="path879" />
    <path
       style="fill:#0000ff;fill-opacity:0.933333;stroke-width:0.264583"
       d="m 68.336283,278.0761 c 5.256636,-38.89911 -6.307965,-43.10442 13.667256,-43.63008 19.975221,-0.52567 27.334511,-23.65487 36.270791,4.2053 8.93629,27.86019 14.71859,45.73274 14.71859,45.73274 z"
       id="path881" />
    <path
       style="fill:#4d4d4d;fill-opacity:0.933333;stroke-width:0.264583"
       d="m 76.746901,277.55043 c -2.102655,-15.24424 0.525663,-35.21946 5.782302,-37.32211 5.256635,-2.10266 30.488497,1.57699 30.488497,4.73097 0,3.15398 3.15398,18.92389 4.20531,27.3345 1.05132,8.41063 3.15398,8.9363 -3.67965,8.9363 -6.83363,0 -36.796459,-3.67966 -36.796459,-3.67966 z"
       id="path937" />
    <rect
       style="fill:#782121;fill-opacity:0.933333;stroke-width:0.264583"
       id="rect1045"
       width="22.60354"
       height="9.4619465"
       x="83.580528"
       y="259.15219" />
    <rect
       style="fill:#782121;fill-opacity:0.933333;stroke-width:0.264583"
       id="rect1099"
       width="3.679646"
       height="11.038938"
       x="87.785835"
       y="267.03717" />
    <rect
       style="fill:#782121;fill-opacity:0.933333;stroke-width:0.264583"
       id="rect1101"
       width="3.679646"
       height="6.8336282"
       x="99.350441"
       y="269.13983" />
    <rect
       style="fill:#782121;fill-opacity:0.933333;stroke-width:0.264583"
       id="rect1103"
       width="11.564602"
       height="17.346903"
       x="90.939819"
       y="242.85664" />
    <path
       style="fill:#d40000;fill-opacity:0.933333;stroke-width:0.264583"
       id="path1157"
       sodipodi:type="arc"
       sodipodi:cx="39.424778"
       sodipodi:cy="250.74159"
       sodipodi:rx="13.141593"
       sodipodi:ry="14.718584"
       sodipodi:start="1.4129824"
       sodipodi:end="1.4108001"
       sodipodi:arc-type="slice"
       d="m 41.490106,265.27727 a 13.141593,14.718584 0 0 1 -15.042484,-12.21458 13.141593,14.718584 0 0 1 10.897667,-16.85424 13.141593,14.718584 0 0 1 15.054376,12.19619 13.141593,14.718584 0 0 1 -10.881241,16.86755 l -2.093646,-14.5306 z" />
    <rect
       style="fill:#ffff00;fill-opacity:0.933333;stroke-width:0.264583"
       id="rect1263"
       width="9.4619465"
       height="17.346903"
       x="36.796463"
       y="228.13806" />
    <rect
       style="fill:#ffff00;fill-opacity:0.933333;stroke-width:0.264583"
       id="rect1317"
       width="15.769911"
       height="4.7309732"
       x="18.398232"
       y="252.31857" />
    <rect
       style="fill:#ffff00;fill-opacity:0.933333;stroke-width:0.264583"
       id="rect1319"
       width="15.244247"
       height="3.1539822"
       x="45.732742"
       y="252.84424" />
    <rect
       style="fill:#ffff00;fill-opacity:0.933333;stroke-width:0.264583"
       id="rect1321"
       width="4.2053099"
       height="16.821239"
       x="36.796463"
       y="258.62653" />
  </g>
</svg>
